<?xml version="1.0" standalone="no"?><!DOCTYPE svg PUBLIC "-//W3C//DTD SVG 1.1//EN" "http://www.w3.org/Graphics/SVG/1.1/DTD/svg11.dtd"><svg t="1634366563852" class="icon" viewBox="0 0 1024 1024" version="1.1" xmlns="http://www.w3.org/2000/svg" p-id="3715" xmlns:xlink="http://www.w3.org/1999/xlink" width="200" height="200"><defs><style type="text/css"></style></defs><path d="M855.60888853 466.3523552a370.64248853 370.64248853 0 0 0-88.4736-122.88l-31.03857706-28.4899552a8.64711147 8.64711147 0 0 0-13.83537814 3.5043552l-13.88088853 39.82222293c-8.64711147 24.94008853-24.576 50.42631147-47.0584896 75.50293334a6.64462187 6.64462187 0 0 1-4.36906667 2.13902186 5.9164448 5.9164448 0 0 1-4.5511104-1.59288853 6.28053333 6.28053333 0 0 1-2.18453333-5.14275627c3.95946667-64.17066667-15.24622187-136.6243552-57.25297813-215.4496-34.77048853-65.536-83.10328853-116.59946667-143.45102187-152.23466666l-44.05475627-25.94133334a8.55608853 8.55608853 0 0 0-12.83413333 7.82791147l2.36657813 51.2c1.59288853 34.9980448-2.4576 65.90008853-12.0604448 91.61386667a304.19626667 304.19626667 0 0 1-50.10773333 86.92622186 315.392 315.392 0 0 1-50.69937707 49.152A376.10382187 376.10382187 0 0 0 175.21777813 451.92533333a370.9155552 370.9155552 0 0 0-9.10222293 309.6576 374.784 374.784 0 0 0 199.8848 197.97333334 375.33013333 375.33013333 0 0 0 146.04515627 29.2636448 377.19608853 377.19608853 0 0 0 146.0451552-29.12711147 371.82577813 371.82577813 0 0 0 119.33013333-79.6899552 369.2316448 369.2316448 0 0 0 110.09137813-263.3728 367.13813333 367.13813333 0 0 0-31.85777813-150.2776896z m-129.2515552 361.90435627A302.42133333 302.42133333 0 0 1 512 916.13866667a302.42133333 302.42133333 0 0 1-214.35733333-87.8364448 296.23182187 296.23182187 0 0 1-88.56462187-211.62666667c0-46.42133333 10.4675552-90.9312 31.03857707-132.3008A301.73866667 301.73866667 0 0 1 326.31466667 379.9267552a372.9180448 372.9180448 0 0 0 62.4867552-60.52977707A377.8787552 377.8787552 0 0 0 450.87857813 211.62666667c5.77991147-15.47377813 10.14897813-31.99431147 12.9251552-49.60711147a323.31093333 323.31093333 0 0 1 65.26293334 85.7884448c35.6352 66.7648 52.06471147 126.1568 48.83342186 176.7196448a78.96177813 78.96177813 0 0 0 137.44355627 57.7991104 350.4355552 350.4355552 0 0 0 36.63644373-48.60586667c14.9731552 19.11466667 27.4432 39.86773333 37.31911147 62.2592 16.9756448 38.22933333 25.6227552 78.8252448 25.6227552 120.64995627a296.04977813 296.04977813 0 0 1-88.5191104 211.62666667z" fill="#1b243f" p-id="3716"></path></svg>