<?xml version="1.0" standalone="no"?><!DOCTYPE svg PUBLIC "-//W3C//DTD SVG 1.1//EN" "http://www.w3.org/Graphics/SVG/1.1/DTD/svg11.dtd"><svg t="1640416857836" class="icon" viewBox="0 0 1024 1024" version="1.1" xmlns="http://www.w3.org/2000/svg" p-id="3550" xmlns:xlink="http://www.w3.org/1999/xlink" width="200" height="200"><defs><style type="text/css"></style></defs><path d="M881.664 132.096c-69.632-69.632-167.936-97.28-263.168-75.776-22.528 5.12-35.84 26.624-30.72 49.152s26.624 35.84 49.152 30.72c67.584-15.36 137.216 4.096 186.368 53.248C926.72 292.864 926.72 460.8 823.296 563.2L512 875.52 199.68 564.224c-102.4-103.424-102.4-271.36 0-373.76 77.824-77.824 204.8-77.824 282.624 0l69.632 69.632c8.192 8.192 77.824 76.8 150.528 76.8h5.12c30.72-1.024 57.344-15.36 77.824-39.936 14.336-17.408 11.264-43.008-6.144-57.344-17.408-14.336-43.008-11.264-57.344 6.144-6.144 8.192-12.288 9.216-17.408 10.24-26.624 2.048-70.656-29.696-93.184-53.248L541.696 133.12c-109.568-109.568-288.768-109.568-399.36 0C7.168 268.288 7.168 487.424 142.336 622.592L483.328 962.56c8.192 8.192 18.432 12.288 28.672 12.288 10.24 0 20.48-4.096 28.672-12.288l340.992-340.992c65.536-65.536 101.376-152.576 101.376-244.736 0-92.16-35.84-179.2-101.376-244.736z" fill="#1b243f" p-id="3551"></path><path d="M240.64 233.472c-33.792 30.72-50.176 76.8-50.176 136.192 0 22.528 18.432 40.96 40.96 40.96s40.96-18.432 40.96-40.96c0-34.816 8.192-60.416 23.552-74.752 18.432-17.408 44.032-16.384 46.08-16.384 22.528 2.048 41.984-15.36 44.032-37.888 2.048-22.528-15.36-41.984-37.888-44.032-7.168-1.024-63.488-4.096-107.52 36.864z" fill="#1b243f" p-id="3552"></path></svg>