<?xml version="1.0" standalone="no"?><!DOCTYPE svg PUBLIC "-//W3C//DTD SVG 1.1//EN" "http://www.w3.org/Graphics/SVG/1.1/DTD/svg11.dtd"><svg t="1632305056384" class="icon" viewBox="0 0 1024 1024" version="1.1" xmlns="http://www.w3.org/2000/svg" p-id="13027" xmlns:xlink="http://www.w3.org/1999/xlink" width="200" height="200"><defs><style type="text/css"></style></defs><path d="M384 544A96 96 0 0 1 480 640v128A96 96 0 0 1 384 864H256A96 96 0 0 1 160 768v-128A96 96 0 0 1 256 544z m384 0a96 96 0 0 1 96 96v128a96 96 0 0 1-96 96h-128A96 96 0 0 1 544 768v-128A96 96 0 0 1 640 544z m-384 64H256a32 32 0 0 0-32 32v128a32 32 0 0 0 32 32h128a32 32 0 0 0 32-32v-128a32 32 0 0 0-32-32z m384 0h-128a32 32 0 0 0-32 32v128a32 32 0 0 0 32 32h128a32 32 0 0 0 32-32v-128a32 32 0 0 0-32-32z m-384-448A96 96 0 0 1 480 256v128A96 96 0 0 1 384 480H256A96 96 0 0 1 160 384V256A96 96 0 0 1 256 160z m0 64H256a32 32 0 0 0-32 32v128a32 32 0 0 0 32 32h128a32 32 0 0 0 32-32V256a32 32 0 0 0-32-32z" p-id="13028" class="sweezy-custom-cursor-hover" fill="#00b3b0"></path><path d="M704 160A160 160 0 0 0 544 320v160H704a160 160 0 0 0 0-320z m0 64A96 96 0 0 1 800 320l-0.448 9.216A96 96 0 0 1 704 416H608V320A96 96 0 0 1 704 224z" p-id="13029" fill="#00b3b0"></path></svg>