<?xml version="1.0" standalone="no"?><!DOCTYPE svg PUBLIC "-//W3C//DTD SVG 1.1//EN" "http://www.w3.org/Graphics/SVG/1.1/DTD/svg11.dtd"><svg t="1632304927493" class="icon" viewBox="0 0 1024 1024" version="1.1" xmlns="http://www.w3.org/2000/svg" p-id="10472" xmlns:xlink="http://www.w3.org/1999/xlink" width="200" height="200"><defs><style type="text/css"></style></defs><path d="M863.9 284.8c-6-9.3-18.4-11.9-27.7-5.9s-11.9 18.4-5.9 27.7C870 367.8 891 439 891 512.4c0 72-20.3 142-58.6 202.5-5.9 9.3-3.1 21.7 6.2 27.6 3.3 2.1 7 3.1 10.7 3.1 6.6 0 13.1-3.3 16.9-9.3C908.6 669.4 931 592 931 512.4c0.1-81.2-23.2-159.9-67.1-227.6zM132.9 512.3c0-71.9 20.2-141.8 58.4-202.2 5.9-9.3 3.1-21.7-6.2-27.6-9.3-5.9-21.7-3.1-27.6 6.2-42.3 66.8-64.6 144.1-64.6 223.6 0 79.9 22.6 157.5 65.2 224.6 3.8 6 10.3 9.3 16.9 9.3 3.7 0 7.4-1 10.7-3.1 9.3-5.9 12.1-18.3 6.1-27.6-38.5-60.7-58.9-130.9-58.9-203.2zM709.8 323.1c-8.5 7-9.7 19.6-2.7 28.2 37.3 45.2 57.9 102.4 57.9 161.1 0 58.7-20.5 115.9-57.8 161-7 8.5-5.8 21.1 2.7 28.2 3.7 3.1 8.2 4.6 12.7 4.6 5.8 0 11.5-2.5 15.4-7.3 21.2-25.7 37.7-54.5 49.1-85.7C799 580.9 805 547 805 512.3c0-68-23.8-134.3-67-186.6-7.1-8.5-19.7-9.6-28.2-2.6zM317.2 319.9c-8.4-7.2-21-6.2-28.2 2.2-45.2 52.9-70.1 120.5-70.1 190.2 0 34.4 5.9 68 17.5 100.1 11.3 31 27.6 59.6 48.5 85.2 4 4.8 9.7 7.3 15.5 7.3 4.5 0 8.9-1.5 12.6-4.5 8.6-7 9.8-19.6 2.8-28.1-36.8-45-57-101.8-57-160 0-60.2 21.5-118.5 60.5-164.2 7.3-8.4 6.3-21-2.1-28.2zM671.4 449c-4.6-39.6-34.8-72.8-73.6-80.7-31.8-6.5-63.4 3.1-85.7 25.8-22.3-22.6-53.9-32.2-85.8-25.8-38.8 7.9-69.1 41.1-73.6 80.7-3.5 30.6 10.1 46.8 25.9 65.6 5.4 6.4 11.5 13.6 17.8 22.5l0.4 0.6 88.7 105.9c6.6 7.9 16.3 12.4 26.6 12.4h0.1c10.3 0 19.9-4.5 26.5-12.4l88.7-105.8 0.4-0.6c6.3-8.8 12.4-16.1 17.8-22.5 15.7-18.8 29.3-35 25.8-65.7z m-56.6 40c-5.7 6.8-12.2 14.5-19.2 24.3L512 613.1l-83.6-99.9c-7.1-9.8-13.5-17.5-19.3-24.3-14.5-17.3-18.3-22.4-16.8-35.3 2.6-22.6 19.8-41.6 41.9-46.1 19.5-3.9 38.7 2.4 51.6 17.1 6.7 7.6 16.2 12 26.2 12h0.1c10 0 19.5-4.4 26.2-12 12.8-14.6 32.1-21 51.5-17.1 22.1 4.5 39.3 23.5 41.9 46.1 1.4 13-2.3 18-16.9 35.4z" p-id="10473" fill="#d81e06"></path></svg>